<svg xmlns="http://www.w3.org/2000/svg" width="622" height="226"><g data-name="Group 55"><g data-name="Group 3" transform="translate(275)"><path d="M4.777 105H347v8H0z" fill="#e6ecf0"/><circle cx="7" cy="7" r="7" transform="translate(142.208 62.051)" fill="#e6ecf0"/><circle data-name="Oval Copy 16" cx="7" cy="7" r="7" transform="translate(93.349 32.382)" fill="#fff"/><circle data-name="Oval Copy 15" cx="7" cy="7" r="7" transform="translate(40.349 73.382)" fill="#e6ecf0"/><circle data-name="Oval Copy" cx="7" cy="7" r="7" transform="translate(190.464 38.463)" fill="#fff"/><circle data-name="Oval Copy 2" cx="7" cy="7" r="7" transform="translate(274.432 66.739)" fill="#e6ecf0"/><circle data-name="Oval Copy 3" cx="7" cy="7" r="7" transform="translate(271.078 31.429)" fill="#e6ecf0"/><circle data-name="Oval Copy 17" cx="7" cy="7" r="7" transform="translate(234.349 95.382)" fill="#e6ecf0"/><circle data-name="Oval Copy 4" cx="7" cy="7" r="7" transform="translate(86.382 177.085)" fill="#16bde3"/><circle data-name="Oval Copy 5" cx="7" cy="7" r="7" transform="translate(234.525 137.679)" fill="#16bde3"/><circle data-name="Oval Copy 12" cx="7" cy="7" r="7" transform="translate(318 212)" fill="#16bde3"/><circle data-name="Oval Copy 13" cx="7" cy="7" r="7" transform="translate(61.349 133.382)" fill="#16bde3"/><circle data-name="Oval Copy 14" cx="7" cy="7" r="7" transform="translate(38.349 144.382)" fill="#16bde3"/><circle data-name="Oval Copy 6" cx="7" cy="7" r="7" transform="translate(199.801 54.767)" fill="#e6ecf0"/><circle data-name="Oval Copy 7" cx="7" cy="7" r="7" transform="translate(250.249 177.987)" fill="#16bde3"/><circle data-name="Oval Copy 8" cx="7" cy="7" r="7" transform="translate(86 38)" fill="#e6ecf0"/><circle data-name="Oval Copy 9" cx="7" cy="7" r="7" transform="translate(325.131)" fill="#e6ecf0"/><circle data-name="Oval Copy 10" cx="7" cy="7" r="7" transform="translate(259.594 133.258)" fill="#16bde3"/><circle data-name="Oval Copy 11" cx="7" cy="7" r="7" transform="translate(147.911 143.259)" fill="#16bde3"/></g><g data-name="Group 54"><g data-name="Group 5 Copy" transform="translate(0 113)"><circle data-name="Oval" cx="24.5" cy="24.5" r="24.5" transform="translate(7)" fill="#16bde3"/><path d="M44.567 51.513a6.572 6.572 0 00-2.52-.513H38.5V23a7 7 0 00-14 0v50.12L8.493 69.76a8.156 8.156 0 00-1.12-.14 5.221 5.221 0 00-3.687 1.54L0 74.893l23.053 23.054A7.025 7.025 0 0028 100h31.687a6.8 6.8 0 006.72-5.973l3.5-24.593a6.707 6.707 0 00-4.153-7.373z" fill="#e6ecf0"/></g><path data-name="Combined Shape" d="M231.428 214l-23-35.715L185.141 214h-19.429v-6.715L196.284 162l-27.715-41.286V114h20.716l19.571 32.143L229.714 114h19.429v6.714l-28 41.143L252 207.285V214zM102 214V114h66.287v17.714h-46v25h39.143v16.857h-39.144V214z" fill="#20dcaa"/></g></g></svg>