<svg xmlns="http://www.w3.org/2000/svg" width="863.367" height="367.519"><g data-name="Group 48"><path data-name="Path 9 Copy 5" d="M334 272.469h70.584l42.41-14.111 40.556 33.161 44.263-75.5 21.2 28.928 42.41-43.04 42.41 70.557 42.415-246.945 42.41 94.541h42.41L851 167.667" fill="none" stroke="#20dcaa" stroke-miterlimit="10" stroke-width="15"/><path data-name="Path 9 Copy 4" d="M333 220.519l65.566-36.706 59.214 14.118 42.444-27.529 42.444 13.412 42.444-28.235 42.444 52.235L648.779 84.99l42.444 48 42.444-62.118 42.445-42.353 42.444 28.235L861 42.637" fill="none" stroke="#e6ecf0" stroke-miterlimit="10" stroke-width="15"/><g data-name="Group 47"><path data-name="Combined Shape" d="M302.475 367.519l-31.894-50-32.288 50h-26.941v-9.4l42.393-63.4-38.431-57.8v-9.4h28.724l27.138 45 28.924-45h26.941v9.4l-38.829 57.6 42.788 63.6v9.4zm-170.769-12.657Q118 342.204 118 319.19v-43.341q0-23.015 13.706-35.672t39.01-12.658a64.984 64.984 0 0119.073 2.782 45.4 45.4 0 0116.011 8.535 39.309 39.309 0 0110.83 14.765 51.96 51.96 0 013.93 20.905v1.913h-27.225v-1.913a34.307 34.307 0 00-.766-6.521 16.7 16.7 0 00-3.451-7.191 22.379 22.379 0 00-7.763-5.85 27.9 27.9 0 00-12.365-2.493q-11.7 0-17.731 5.754t-6.038 15.725v47.177q0 9.977 6.039 15.727t17.731 5.753a38.314 38.314 0 0010.351-1.629 19.356 19.356 0 009.874-6.712q4.118-5.077 4.119-13.712v-1.915h27.221v1.918a51.927 51.927 0 01-3.93 20.9 39.312 39.312 0 01-10.826 14.768 45.388 45.388 0 01-16.007 8.534 65.043 65.043 0 01-19.077 2.78q-25.303 0-39.01-12.657z" fill="#16bde3"/><g data-name="Icon Probirka" transform="translate(0 227.519)"><path d="M7 88.369h44V118a22 22 0 01-22 22 22 22 0 01-22-22V88.369z" fill="#20dcaa"/><path data-name="Rectangle" fill="#e6ecf0" d="M7 10.922h44v77.447H7z"/><rect data-name="Rectangle Copy 3" width="58" height="10.922" rx="4.5" fill="#e6ecf0"/></g></g></g></svg>