<svg xmlns="http://www.w3.org/2000/svg" width="432" height="125"><path data-name="Combined Shape" d="M354.47 124.115a17.324 17.324 0 01-6.96-3.443l4.98-7.554a18.915 18.915 0 004.407 2.8 12.3 12.3 0 005.071 1.034c2.748 0 4.8-.686 6.089-2.039a7.268 7.268 0 001.949-5.209v-2.857h-.121a8.555 8.555 0 01-3.867 3.017 12.312 12.312 0 01-4.349.882 14.826 14.826 0 01-5.88-1.129 13.1 13.1 0 01-4.526-3.166 14.159 14.159 0 01-2.911-4.841 18.588 18.588 0 01-.088-11.878A15.833 15.833 0 01350.9 84.8a13.338 13.338 0 014.171-3.443 11.738 11.738 0 015.576-1.31 13.744 13.744 0 013.511.425 13.888 13.888 0 012.849 1.1 10.559 10.559 0 012.158 1.491 9.438 9.438 0 011.437 1.615h.121v-3.9H379v27.106a23.97 23.97 0 01-1.04 7.393 13.9 13.9 0 01-3.127 5.368 13.023 13.023 0 01-5.256 3.266 22.981 22.981 0 01-7.43 1.09 33.673 33.673 0 01-7.677-.886zm6.207-35.422a7.944 7.944 0 00-2.28 1.615 7.173 7.173 0 00-1.528 2.316 7.27 7.27 0 001.528 7.859 7.988 7.988 0 002.28 1.611 6.894 6.894 0 005.667 0 7.766 7.766 0 002.309-1.611 7.117 7.117 0 001.531-2.317 7.38 7.38 0 000-5.542 7.113 7.113 0 00-1.531-2.316 7.825 7.825 0 00-2.309-1.615 6.9 6.9 0 00-5.667 0zm-74 22.439a9.407 9.407 0 01-3.322-1.537 7.173 7.173 0 01-2.22-2.741 9.47 9.47 0 01-.8-4.093V88.848h-5.69v-7.227h5.691v-8.672h8.893v8.672h7.827v7.227h-7.827V98.6a18.4 18.4 0 00.121 2.2 4.4 4.4 0 00.534 1.715 2.717 2.717 0 001.273 1.117 5.6 5.6 0 002.285.389 15.079 15.079 0 001.868-.15 3.137 3.137 0 001.748-.69v7.525a13.175 13.175 0 01-3.084.725 28.171 28.171 0 01-3.14.183 16.908 16.908 0 01-4.154-.482zm-33.543-.4a11.753 11.753 0 01-5.386-3.154l5.572-6.185a9.23 9.23 0 002.846 2.418 7.656 7.656 0 003.64.829 8.438 8.438 0 002.877-.463 1.69 1.69 0 001.285-1.68 1.869 1.869 0 00-1.135-1.748 12.511 12.511 0 00-2.875-.979l-3.732-.855a15.532 15.532 0 01-3.726-1.385 7.766 7.766 0 01-2.878-2.6 7.952 7.952 0 01-1.131-4.5 9.068 9.068 0 011.07-4.529 9.417 9.417 0 012.814-3.126 12.2 12.2 0 014.01-1.805 18.306 18.306 0 014.589-.584 21.51 21.51 0 015.935.859 11.07 11.07 0 015.08 3.062l-5.631 5.575a6.5 6.5 0 00-5.323-2.513 5 5 0 00-2.263.552 1.946 1.946 0 00-1.1 1.9 1.709 1.709 0 001.128 1.618 14.957 14.957 0 002.878.919l3.732.858a14.108 14.108 0 013.732 1.438 8.367 8.367 0 012.875 2.663 7.95 7.95 0 011.135 4.5 8.348 8.348 0 01-1.252 4.745 9.588 9.588 0 01-3.213 3 13.824 13.824 0 01-4.4 1.591 26.238 26.238 0 01-4.836.46 23.43 23.43 0 01-6.314-.886zm-26.889-.217a15.223 15.223 0 01-5.162-3.151 14.848 14.848 0 01-3.451-4.931A15.908 15.908 0 01216.376 96a15.93 15.93 0 011.259-6.43 14.823 14.823 0 013.451-4.927 15.194 15.194 0 015.162-3.155 18.087 18.087 0 016.328-1.1 14.222 14.222 0 015.672 1.1 11.882 11.882 0 014.319 3.155 14.529 14.529 0 012.733 4.926 20.433 20.433 0 01.958 6.431v2.876h-20.882a7.312 7.312 0 002.341 4.194 6.553 6.553 0 004.441 1.563 6.675 6.675 0 003.75-1.011 10.21 10.21 0 002.669-2.6l6.3 4.717a14.477 14.477 0 01-5.459 4.347 16.154 16.154 0 01-6.841 1.531 18.049 18.049 0 01-6.329-1.106zm2.847-23.024a6.715 6.715 0 00-1.95 1.256 5.5 5.5 0 00-1.256 1.773 5.964 5.964 0 00-.513 2.115h11.885a5.429 5.429 0 00-1.5-3.981A5.3 5.3 0 00231.735 87a6.7 6.7 0 00-2.64.487zm105.178 22.636V95.913c0-.834-.028-1.7-.088-2.6a8.1 8.1 0 00-.546-2.479 4.275 4.275 0 00-1.4-1.85 4.364 4.364 0 00-2.7-.715 5.694 5.694 0 00-2.849.625 4.3 4.3 0 00-1.669 1.674 6.707 6.707 0 00-.758 2.358 19.716 19.716 0 00-.184 2.75v14.451h-9.1V81.1h8.735v3.941h.12a7.334 7.334 0 011.216-1.674 8.883 8.883 0 011.88-1.493 10.963 10.963 0 012.486-1.073 10.469 10.469 0 013.033-.42 12.741 12.741 0 015.579 1.046 8.034 8.034 0 013.3 2.9 11.54 11.54 0 011.608 4.358 32.876 32.876 0 01.427 5.434v16.008zm-24.489 0h-9.015V81.26h9.016v28.866zm-112.388 0v-34.72H185V67h34.364v8.407h-12.4v34.72zm104.183-34.3a4.976 4.976 0 01-1.534-3.654 4.976 4.976 0 011.534-3.654 5.263 5.263 0 017.391 0 4.967 4.967 0 011.533 3.651 4.967 4.967 0 01-1.535 3.654 5.27 5.27 0 01-7.391 0z" fill="#2c333d"/><path data-name="Combined Shape" d="M75.85 110.887a15.552 15.552 0 01-5.243-3.178 15.015 15.015 0 01-3.5-4.973 16.009 16.009 0 01-1.279-6.485 16.009 16.009 0 011.272-6.486 15.015 15.015 0 013.5-4.973 15.552 15.552 0 015.243-3.178 19.118 19.118 0 0112.857 0 15.505 15.505 0 015.24 3.178 15.015 15.015 0 013.5 4.973 15.966 15.966 0 011.279 6.485 15.966 15.966 0 01-1.279 6.485 15.016 15.016 0 01-3.5 4.973 15.505 15.505 0 01-5.24 3.178 19.118 19.118 0 01-12.857 0zm1.034-20.135a7.881 7.881 0 00-1.917 5.5 7.864 7.864 0 001.917 5.494 7.973 7.973 0 0010.786 0 7.85 7.85 0 001.92-5.494 7.867 7.867 0 00-1.92-5.5 7.973 7.973 0 00-10.786 0zM0 89.5a22.842 22.842 0 0138.891-15.91l-6.319 6.24A13.884 13.884 0 008.928 89.5a13.884 13.884 0 0023.644 9.668l6.319 6.241A22.84 22.84 0 010 89.5zm157.975 19.876a13 13 0 01-4.489-3.149 14.208 14.208 0 01-2.888-4.815 17.966 17.966 0 01-1.01-6.121 18.9 18.9 0 01.923-5.908 16.461 16.461 0 012.615-5 12.873 12.873 0 014.136-3.484 11.621 11.621 0 015.531-1.3 15.128 15.128 0 015.207.881 8.374 8.374 0 013.954 3h.121V67H181v42.771h-8.211v-3.877h-.121a9.784 9.784 0 01-1.4 1.606 10.5 10.5 0 01-2.023 1.486 12.435 12.435 0 01-2.556 1.089 9.882 9.882 0 01-2.885.426 14.725 14.725 0 01-5.829-1.125zm2.411-19.718a7.737 7.737 0 00-1.875 5.393 7.731 7.731 0 001.875 5.389 7.753 7.753 0 0010.528 0 7.734 7.734 0 001.875-5.389 7.74 7.74 0 00-1.875-5.393 7.756 7.756 0 00-10.528 0zM130.223 110.5l-6.093-19.94h-.122l-5.43 19.94h-9.11l-10.737-30h9.65l5.973 18.828h.122l5.01-18.828h9.892l5.43 18.828h.122l5.489-18.828h9.169l-10.438 30zm-86.837 0V81.225h9.185v4.7h.122a11.15 11.15 0 013.492-4.069 8.945 8.945 0 015.081-1.356c.53 0 1.062.022 1.592.063a7.9 7.9 0 011.47.238v8.254A14.066 14.066 0 0062.4 88.6a12.717 12.717 0 00-1.99-.15 9.871 9.871 0 00-4.162.722 5.53 5.53 0 00-2.361 2.017 7.638 7.638 0 00-1.068 3.1 29.37 29.37 0 00-.246 3.978V110.5z" fill="#fff"/><path data-name="Combined Shape" d="M399 111a7.119 7.119 0 117-7.116 7.064 7.064 0 01-7 7.116zm0-20.138a7.089 7.089 0 01-6.071-3.429l-23.5-38.319a23.346 23.346 0 011.324-26.3l10.766-14.1a21.9 21.9 0 0134.966 0l10.763 14.1a23.35 23.35 0 011.324 26.3L405.07 87.432a7.088 7.088 0 01-6.07 3.429zm.029-64.891a3.18 3.18 0 00-2.484 1.193l-3.148 3.9a.361.361 0 00-.031.4l3.753 6.619a2.154 2.154 0 003.765 0l3.753-6.619a.363.363 0 00-.031-.4l-3.042-3.841a3.208 3.208 0 00-1.192-.963 3.255 3.255 0 00-1.343-.29zm10.13-6.92a2.994 2.994 0 102.941 2.993 2.97 2.97 0 00-2.941-2.994zm-20.317 0a2.994 2.994 0 102.936 2.993 2.97 2.97 0 00-2.936-2.994z" fill="#20dcaa"/></svg>